/* XPM */
static char *result[] = {
/* columns rows colors chars-per-pixel */
"52 49 246 2 ",
"   c #000000",
".  c #00000C",
"X  c #050319",
"o  c #1B0D06",
"O  c #01012C",
"+  c #000023",
"@  c #010134",
"#  c #00003B",
"$  c #0C073C",
"%  c #160839",
"&  c #171233",
"*  c #29153D",
"=  c #2C1831",
"-  c #06233C",
";  c #37263E",
":  c #49343D",
">  c #583F3F",
",  c #74573F",
"<  c #000044",
"1  c #0F0042",
"2  c #180642",
"3  c #000057",
"4  c #1C005A",
"5  c #2A0A4B",
"6  c #2B1343",
"7  c #291544",
"8  c #37194A",
"9  c #2A0354",
"0  c #380753",
"q  c #3A1B56",
"w  c #2D1651",
"e  c #3E2548",
"r  c #213649",
"t  c #3D2661",
"y  c #301564",
"u  c #47195B",
"i  c #421F4E",
"p  c #482A47",
"a  c #553748",
"s  c #4B2953",
"d  c #482558",
"f  c #552A5D",
"g  c #593657",
"h  c #503047",
"j  c #663A5A",
"k  c #623F4F",
"l  c #481D63",
"z  c #4A0175",
"x  c #4A2863",
"c  c #5B2C6C",
"v  c #562965",
"b  c #5D3164",
"n  c #5F306E",
"m  c #6C3C64",
"M  c #673767",
"N  c #723D6A",
"B  c #5E4643",
"V  c #4E484F",
"C  c #694847",
"Z  c #734B4C",
"A  c #6D5243",
"S  c #7A5648",
"D  c #6B425C",
"F  c #694556",
"G  c #74465E",
"H  c #744A5C",
"J  c #7C4C5D",
"K  c #764B55",
"L  c #7B5558",
"P  c #6D4162",
"I  c #734563",
"U  c #7B4C62",
"Y  c #7D4869",
"T  c #754667",
"R  c #7D5161",
"E  c #755961",
"W  c #72537E",
"Q  c #75676C",
"!  c #60645C",
"~  c #97773A",
"^  c #845B4E",
"/  c #834D5E",
"(  c #835A53",
")  c #8B5C55",
"_  c #84535D",
"`  c #895659",
"'  c #8C5B5C",
"]  c #825658",
"[  c #915C5B",
"{  c #955D58",
"}  c #896548",
"|  c #976A4A",
" . c #9A7849",
".. c #8C6258",
"X. c #946355",
"o. c #9D6B53",
"O. c #94625B",
"+. c #9C6A5B",
"@. c #986658",
"#. c #987354",
"$. c #887246",
"%. c #A26D4D",
"&. c #A6744B",
"*. c #A87849",
"=. c #B17D4A",
"-. c #A26D53",
";. c #A36C5D",
":. c #A1665E",
">. c #A47354",
",. c #AB7554",
"<. c #A47A54",
"1. c #A4715B",
"2. c #AA745C",
"3. c #AC7B5C",
"4. c #A97A56",
"5. c #B27C5B",
"6. c #B37B56",
"7. c #834D68",
"8. c #835362",
"9. c #8D5A63",
"0. c #8A5567",
"q. c #955D62",
"w. c #975E6A",
"e. c #946362",
"r. c #9B6464",
"t. c #9D6B62",
"y. c #976865",
"u. c #9E7061",
"i. c #A56B66",
"p. c #A16866",
"a. c #AB7463",
"s. c #AD7A61",
"d. c #A77467",
"f. c #B47D62",
"g. c #B67865",
"h. c #AC7474",
"j. c #C27E62",
"k. c #AA813F",
"l. c #D7AB3D",
"z. c #DCB13F",
"x. c #E0B63C",
"c. c #AD874A",
"v. c #B4824C",
"b. c #BB8B4C",
"n. c #B9874B",
"m. c #B6944B",
"M. c #AD8254",
"N. c #AA8658",
"B. c #B48353",
"V. c #BC8C54",
"C. c #B3835C",
"Z. c #BB835C",
"A. c #BC8B5C",
"S. c #B78856",
"D. c #BC9354",
"F. c #BB915A",
"G. c #BC9A5E",
"H. c #AE9251",
"J. c #BC8B63",
"K. c #B88663",
"L. c #BB9863",
"P. c #B3936C",
"I. c #90855D",
"U. c #C28D4B",
"Y. c #C8994A",
"T. c #C38C53",
"R. c #C28D5B",
"E. c #C8895B",
"W. c #C39354",
"Q. c #C4925B",
"!. c #CC945D",
"~. c #CD9A5C",
"^. c #C89A56",
"/. c #D39C5D",
"(. c #D39A56",
"). c #CBA64C",
"_. c #D3A947",
"`. c #DAB54D",
"'. c #DDBB4E",
"]. c #D7B249",
"[. c #CDAB5D",
"{. c #CAA359",
"}. c #D3AA54",
"|. c #DBA45C",
" X c #D5A858",
".X c #D5B254",
"XX c #DAB953",
"oX c #D8B259",
"OX c #CBB75E",
"+X c #E3BC4A",
"@X c #E3A95D",
"#X c #E2BA55",
"$X c #C38B63",
"%X c #C39C63",
"&X c #C99565",
"*X c #D49C66",
"=X c #D59B77",
"-X c #CBA461",
";X c #DCA463",
":X c #D8A664",
">X c #C6BA67",
",X c #DFBC60",
"<X c #E4AC64",
"1X c #E3A863",
"2X c #EBB167",
"3X c #F6BA6B",
"4X c #DFC457",
"5X c #E5C34E",
"6X c #E9C34B",
"7X c #EBC94D",
"8X c #E4C351",
"9X c #ECCB52",
"0X c #E8C756",
"qX c #F3CB55",
"wX c #EED257",
"eX c #F1D456",
"rX c #F2D45B",
"tX c #F4D95B",
"yX c #FADA5C",
"uX c #F1C84F",
"iX c #D6CD72",
"pX c #F6DC63",
"aX c #F9DD63",
"sX c #F6D965",
"dX c #EFCE6C",
"fX c #FAE265",
"gX c #FCE66A",
"hX c #FDEA6C",
"jX c #F6E164",
"kX c #ECE779",
"lX c #FDEC73",
"zX c #F5E874",
"xX c #FCF475",
"cX c #FCF57A",
"vX c #FAF97B",
"bX c #F7F37F",
"nX c #FCF06F",
"mX c #583D81",
"MX c #545486",
"NX c #817E82",
"BX c #8A8685",
"VX c #B5ABA1",
"CX c #FAFA84",
"ZX c #FAFC91",
"AX c #EDEE88",
"SX c None",
/* pixels */
"SXSXSXSXSXSXSXSXSXSXSXSXSXSXSXSXSXSXSXSXSXSXSXSXSXSXSXSXSXSXSXSXSXSXSXSXSXSXSXSXSXSXSXSXSXSXSXSXSXSXSXSX",
"SXSXSXSXSXSXSXSXSXSXSXSXSXSXSXSXSXSXSXSXSXF O.SXSXSXSXSXSXSXSXSXSXSXSXSXSXSXSXSXSXSXSXSXSXSXSXSXSXSXSXSX",
"SXSXSXSXSXSXSXSXSXSXSXSXSXSXSXSXSXSXSXSXSXC :XSXSXj g SX# A.A.SXSXSXSXSXSXSXSXSXSXSXSXSXSXSXSXSXSXSXSXSX",
"SXSXSXSXSXSXSXSXSXSXSXSXSXR SXSXSXSXSXSXSX8 =X2XSXj C @ :X3XA SX# C B.S.#.SXSXSXSXSXSXSXSXSXSXSXSXSXSXSX",
"SXSXSXSXSXSXSXSXSXSXSXSXSXSXh.&X:X*X*XE.| < ` ;X<X$X| A.3XB.# > *.|.3X3X3X2X&XSXSXSXSXSXSXSXSXSXSXSXSXSX",
"SXSXSXSXSXSXSXSXSXSXSXSXSXSX0 J =.*X;X1X<XQ.S ,.&X;XT.1X<X&.| n.(.1X2X<X*XC.N.a SXSXSXSXSXSXSXSXSXSXSXSX",
"SXSXSXSXSXSXSXSXSXSXSXSXSXSXSXF ' | =.U.(.|.|.b.,.W.E.|./.%.=.U./.;X!.+.p ; SXSXSXSXSXSXSXSXSXSXSXSXSXSX",
"SXSXSXSXSXSXSXSX&X{.&X*X~.~.SX: a { %.&.=.U.(. X=.,.T.(.E.@.=.Y./.B.[ O.:X<X1X:X*XJ.K SXSXSXSXSXSXSXSXSX",
"SXSXSXSXSXSXSXSXy.=X1X3X3X3X3X;XS.S o.o.%.&.n.(.!.X.B.!.=.[ n.U.6.X.U 3.$Xf.f.K.C.9.1 SXSXSXSXSXSXSXSXSX",
"SXSXSXSXSXSXSXSXSX0 / >.v.U.(.|.<X|.W.,.o.X.&.n.(.-.-.T.-.[ 6.=.O.U R U T R 8.` T d SXSXSXSXSXSXSXSXSXSX",
"SXSXSXSXSXSXSX- I.! V p ` %.*.=.b.(.(.E.=.-.{ %.U.,.[ B.@.` ,.@.8.8.U T g 0 i g g # C SXSXSXSXSXSXSXSXSX",
"SXSXSXSXSXSX$.0XjXzXkX>XS K { o.%.v.n.U.T.6.:.[ :.;.] ;.[ 0.{ 7.I m P g F iXkXkXkXOX .&.=.S SXSXSXSXSXSX",
"SXSXSXSXSXc.].+Xx.l.).).k.= K J ` [ | -.:.5.2.{ O.@./ q.{ ` q.e.a.K.J.Z.N.L.OX`.+XtXwXA | B SXSXSXSXSXSX",
"SXSXSXSX~ l.l.Y.~ , M.Q./.-X/./.!.A.5.:.{ { 2.-.@.1.A.A.p.q.[ $X&X$XE.,.e.H.m.).).}.tXH.# # SXSXSXSXSXSX",
"SXSXSXSXl.l.m.n.| #.~.R.A.J.Z.K.f.s.2.2.-.B.>.X.[.K.iXkXiXL.-X%XF.S.V.#.N.XX.X.X].5X5Xm.# SXSXSXSXSXSXSX",
"SXSXSX; Y.Y.n.b.}.W...<.K.g.i.q.` 8.{ _.9XyXfXiXCXiXAXZXZXzXlXgXrX[./.:X~.A H.5X5X4X4Xk.# SXSXSXSXSXSXSX",
"SXSXSX# k.W.V.}.).D.1X*X$Xd.d.i.r.' ,.+XyXgXhXlXCXCXZXZXCXcXlXaXpX4X{.D.V.<..X4X`.XX].V # SXSXSXSXSXSXSX",
"SXSXSXSXS R.F.B.B.*Xd./ 7.` / 8./ n.+X7XeXaXgXlXlXcXCXCXbXlXlXgXwXwX8XV./.%X{..X.XXX$.h >., @ SXSXSXSXSX",
"SXSXSXSX@ | R.V.Q.4.+.C.K.y._ @.%.#XrXrXeXyXyXgXlXlXlXlXlXlXaXaXtXeXeX.XS.<.Q.OX.X} # +.@X@X(.B.V...SXSX",
"SXSXSX* ( p S n.b.Z.a.2.f.r.U } oXsXsXaXaXgXgXfXaXaXgXgXgXfXfXfXfXfXgXyXXXf.<.#.B * ( R.@X@X2X1X&X( SXSX",
"SXSX# R.@X6.H J ) Z h ) ' 8.j n.rXgXlXCXcXcXlXgXfXjXfXjXpXfXhXxXvXxXhXwXXXC.) 8 k ..>.Y.Y.U.<.H < SXSXSX",
"SXSX .2X|.Y.[ ` ..S :.8.U r._ W.|. XoX0XsXzXgXaXyXtXtXeXtXgXgXjX4Xc.c.b.B.` q.q.q.e.;.,.&.X.P e SXSXSXSX",
"SX; 1X@X^.-...@.' U ' 2.f.' K D.Y.^ 2 Q | b.+X+X6XeXtXtX7X7X).&.g ! < <.b.] U 8.R T 8.' _ x < SXSXSXSXSX",
"SX| <X(.>...) D b F R.|.t.j } ).Y.E V BX- | _.+XtXhXvXnXwXl.b.a r BX4 {.#X1.m U U ] / I j | | SXSXSXSXSX",
"SX~.|.-.] L H I C =.|.C.U j  .`.uXN.3 . # , l.7XhXxXvXvXnX7Xl.B & % F.rXqXK.m / _ U T J B.<X<X=.@ SXSXSX",
"} |.#.F g s s 5 6.1XZ.G J j *.#XuXrX>X>XOX*.l.eXhXxXvXvXvXtX].).oXdXaX#X#XS.j 7.J U [ =. X<X<X@XR.: SXSX",
" .>.q 7 1 < & B.(.,.G j J j *.#XuXuXaXhXqX_.x.tXhXxXvXvXvXjX5X_.oX#XoX-X%XN.T q.U I R O.-.2.R.!.;XR.SXSX",
"Z p @ & 6 a 1.3.G v b / ' j  .}. X#X]. X_.x.7XeXjXxXCXvXxXgXwX].D.Q.F.C.Z.+.m p.q.8.P m T T T _ O.K.S SX",
"< SXSXSX< s 0 3 9 F -.@.J ` #.Y.W.^.).^.Y.x.7XtXjXcXvXxXhXhXtX5XY.S.M.1.+.j c 0.p.a.;.' j j j G g m I SX",
"SXSXSXe <.b. . .&.*.o.8.O.C.^ c.W.W.Y.Y.].7X7XeXaXlXxXlXgXfXtX7X.XM.+.' I s M N 7.w.g.E.6.} > @ * 7 7 2 ",
"SXSX; Q.1X|.E.B.,.+.:.5.Z.2.o.C V.n.D.`.5X5X0XwXsXhXgXhXgXjXtX7X+XD.] _ g j r.Y N T 8.2.E.E.T.A # SXSXSX",
"SXSXV.1XZ.+._ J U J +.V.;.9.J.S Z X.).5X5X5X0X9XsXaXfXfXjXpXtX8X8Xc.s I 7 M i.i.Y N T Y 7.q.6.b.a SXSXSX",
"SXSX*X8.b g D F 2 ( E.,.G a.!.5.9 | `.5X5X5X5X9XyXyXaXaXaXeX5X5XXX{.a 5 q c 7.g.i.9.T T J G 8.2.} SXSXSX",
"SXg 9 < SX@ @ : | !.5.D t.!.!.q.l n.`.8X5X6X4XH.I.N.D. X}.%XP.G..X[.N.# n N n p.g.a.h.w.i @ e / ' SXSXSX",
"SXSXSXSXSXL 3.$XK.' g t././.3.m j m.`.+X+X5X`.Q MXn z z MXVXBX .oXOX[.B v N n 7.g.a.i.K.a.p @ % s SXSXSX",
"SXSXSXSXd 0.8.G d F f.*X!.;.m q.L D.XX`.XXXXXX{.! y t t x w } -X-X-X:X#.u 7.N N w.a.w.q.g.p.@ SX# SXSXSX",
"SXSXSXSXSX@ O @ Z E.!.5.' M q.g.X.4.}.{.G.}.OX:X-XE 3 y 3 d.%X-X[.L.%X3.l w.w.7.7.0.w.7.0.h.a SXSXSXSXSX",
"SXSXSXSXSXSX+ ^ C.;.] M c 8.6.j.H ) ^.{.^.[.[.{.%X%XH q #.L.L.-X-X-X-X#.v 7.i.a.q.7.f p q G a SXSXSXSXSX",
"SXSXSXSXSXSXK p.P v v b s ` j.q.I ] N.F.^.P.Q.G.A.J.L H L.L.%X-XP.L.P.L m Y Y w.p.r.` a O SXSXSXSXSXSXSX",
"SXSXSXSXSXSXm 9 9 8 6 * @ @.g.M y.] ..C.F.F.L.J.K.t.g p O.P.%X%X%XJ.t.d N T m d d M J a @ SXSXSXSXSXSXSX",
"SXSXSXSXSXSX# SXSXSX.   a g.y.M r.9.h ( t.u.@.L H I ..9.g a L e.y.9.g b n c N P ; .   SXSXSXSXSXSXSXSXSX",
"SXSXSXSXSXSXSXSXSXSXSX  p a.8.N r.Y M i e 7 6 H y.d.N.d.d.e.L b w q v c x v l M c 5 & SXSXSXSXSXSXSXSXSX",
"SXSXSXSXSXSXSXSXSXSXSXSX  _ j 8 H M c f M M 6 p ..u.u.d.u.y.P x n c v v u 2 % # 1 2 $ SXSXSXSXSXSXSXSXSX",
"SXSXSXSXSXSXSXSXSXSXSXSXSX% O   8 l 5 d N n c u q F E H P v l l q w 2 5 w 7 # X SXSXSXSXSXSXSXSXSXSXSXSX",
"SXSXSXSXSXSXSXSXSXSXSXSXSXSXSXSX@ O O x x u u 8 w d w q v u x q   + O X   SXSXSXSXSXSXSXSXSXSXSXSXSXSXSX",
"SXSXSXSXSXSXSXSXSXSXSXSXSXSXSXSXSXSXSXX + X     @ 7 o = * @ @ % X   SXSXSXSXSXSXSXSXSXSXSXSXSXSXSXSXSXSX",
"SXSXSXSXSXSXSXSXSXSXSXSXSXSXSXSXSXSXSXSXSXSXSXSXSXSX        SXSXSXSXSXSXSXSXSXSXSXSXSXSXSXSXSXSXSXSXSXSX",
"SXSXSXSXSXSXSXSXSXSXSXSXSXSXSXSXSXSXSXSXSXSXSXSXSXSXSXSXSXSXSXSXSXSXSXSXSXSXSXSXSXSXSXSXSXSXSXSXSXSXSXSX",
"SXSXSXSXSXSXSXSXSXSXSXSXSXSXSXSXSXSXSXSXSXSXSXSXSXSXSXSXSXSXSXSXSXSXSXSXSXSXSXSXSXSXSXSXSXSXSXSXSXSXSXSX"
};
