/* XPM */
static char *result[] = {
/* columns rows colors chars-per-pixel */
"16 16 3 1 ",
"  c #3A3A3A",
". c gray25",
"X c gray34",
/* pixels */
"     X       X  ",
"     X       X  ",
".....X.......X..",
"XXXXXXXXXXXXXXXX",
" X       X      ",
" X       X      ",
".X.......X......",
"XXXXXXXXXXXXXXXX",
"     X       X  ",
"     X       X  ",
".....X.......X..",
"XXXXXXXXXXXXXXXX",
" X       X      ",
" X       X      ",
".X.......X......",
"XXXXXXXXXXXXXXXX"
};
