/* XPM */
static char *result[] = {
/* columns rows colors chars-per-pixel */
"32 32 8 1 ",
"  c #231605",
". c #362107",
"X c #462B0A",
"o c #345E27",
"O c #3E772C",
"+ c #6E4411",
"@ c #925E1E",
"# c #579F41",
/* pixels */
"++++++..                  .+++++",
"@@++...  .            ...  .@@++",
".@@.     ..    .....  .XX.  .@@.",
" ..      ..    .+XX.  ..+.  ... ",
"         .X.   .@+..    .  ..   ",
"  ..    .XX.   .@..  ....  ...  ",
" .+.   .+++.    .    .XX.. .XX  ",
" .+. ..++++.         .XXX.....  ",
"...  ..@@@+.         .++XX.     ",
"      ...@..         .@++X+.    ",
" ...     ..    ....  .@@++.    .",
"..X..      ..  .++X.  .....   .+",
".+XXX.    .+X. .@@XX.         .+",
"+++X..    .@+. ..@@+.  ....  .++",
"+++...    ....  ..@+.  .++.  .++",
"+++.             ...  .@+++. .@+",
"++..      .           .@@+.. .@@",
"@..   .....      ...   ....  ..@",
"@.    .++XX.    .++..         ..",
"..    .+++X.    .@++..          ",
"      .@@++.    .@@++.  ....    ",
"      oo@@..    .....  ..oXX.   ",
"   ..ooo...            .+ooX.   ",
"   .+oooo   ..oo..     .@ooXX.  ",
" o .ooooo  .++oooX.    ..oooo.  ",
"ooooooooo .+++oooo.     ooooo.  ",
"OOOoOOOOoooOOOoooOOOOOOOoooOoooo",
"OOOOOOOOOOOOOOOOOOOOOOOOOOOOOOOO",
"OO##OOOOOOOOOOOOOOOOOOOOOO##OOOO",
"#######OOOOOOO##O###OOOOOO#OOOOO",
"#############################OOO",
"################################"
};
