/* XPM */
static char *result[] = {
/* columns rows colors chars-per-pixel */
"32 32 8 1 ",
"  c #231605",
". c #362107",
"X c #462B0A",
"o c #345E27",
"O c #3E772C",
"+ c #6E4411",
"@ c #925E1E",
"# c #579F41",
/* pixels */
"++.       .+++++@@.       oOOOO#",
"++@.       ..++@@..       oOOOO#",
"+@@. .X.     .....     ...oOOOO#",
"+@....X.             ..XoooOOO##",
"+.  .... .     ..   .XXXooOO#O##",
".      ..+.. ..+..  .XoooooO####",
"  ..  ..XX+. .+++.  .ooooooOOO##",
" .X+...XX++. .++@.  ..+@.ooOOO##",
" .X. .XX++@. ..@@.   .... OOOO##",
" ... .XX+@@.   ..         OOOO##",
"     ......        ..     OOOO##",
"            ...   ..+.    OOOO##",
"  ...      .X++. ..++.    OOO###",
"  .X..    .XX@@. .++@.  ..OOO###",
"  .X+.    .+@@.. .+@@. .XoOOO###",
"  .+@@.   .+@..   .... .oooOOO##",
"  ....    ....         ooooOO###",
"                       ooooOO###",
"            ...        .++OOOO##",
"           .X+.        .++OOOO##",
"    ...... .+@.   ....  .+OOOO##",
"  ..XX+++.. ... ..XX+..  .oOOO##",
" ....X++@@.      .X++@.   oOOO##",
"     .++@.       .++@@.ooooOOO##",
".     .+@.       .++@oooooOOOO##",
"..     ...       ....oooooOOO###",
"+.     ..   ...       ooooOOO###",
"+.         .X..       .+ooOOO###",
"++.  ...  ..XX...     ...ooO####",
"++@. .++. .XX+++..       oOO####",
"+@@.  ... ..+++++...    ooOOO###",
"+@.     .  ..++++@@.     oOOO###"
};
