/* XPM */
static char *result[] = {
/* columns rows colors chars-per-pixel */
"32 32 8 1 ",
"  c #231605",
". c #362107",
"X c #462B0A",
"o c #345E27",
"O c #3E772C",
"+ c #6E4411",
"@ c #925E1E",
"# c #579F41",
/* pixels */
"###OOOo     .@@++++..  .     .@+",
"###OOOoo    ...+++++.. ...  .@@+",
"####OOo       ..+++XX. .++. .@++",
"####Ooo...     ...XX..  ...  .++",
"###OOOoo+.       ..X.         .+",
"###OOOoooo       ...   ..     .+",
"###OOOooooo....       ...     ..",
"##OOOOooooo@++.       .@+.     .",
"##OOOoooo.@@++.       .@++.     ",
"##OOOo   .@++X.      .@@++X.... ",
"##OOOo.  ..+XX.. ... ..+++XX..  ",
"##OOOO+.  ....   .@+. ......    ",
"##OOOO++.        .+X.           ",
"##OOOO++.        ...            ",
"###OOoooo                       ",
"###OOoooo         ....    ....  ",
"##OOOooo. ....   ..@+.   .@@+.  ",
"###OOOoX. .@@+. ..@@+.    .+X.  ",
"###OOO..  .@++. .@@XX.    ..X.  ",
"###OOO    .++.. .++X.      ...  ",
"##OOOO    .+..   ...            ",
"##OOOO     ..        ......     ",
"##OOOO         ..   .@@+XX. ... ",
"##OOOO ....   .@@.. .@++XX. .X. ",
"##OOOoo.@+..  .@++. .++XX...+X. ",
"##OOOoooooo.  .+++. .+XX..  ..  ",
"####OoooooX.  ..+.. ..+..      .",
"##O#OOooXXX.   ..     . ....  .+",
"##OOOoooX..             .X....@+",
"#OOOOo...     .....     .X. .@@+",
"#OOOOo       ..@@++..       .@++",
"#OOOOo       .@@+++++.       .++"
};
